<svg width="262" height="262" viewBox="0 0 262 262" fill="none" xmlns="http://www.w3.org/2000/svg">
<circle cx="131" cy="131" r="129.5" stroke="black" stroke-width="3"/>
<path d="M174.2 165.039C174.2 188.861 154.861 208.177 131 208.177C107.139 208.177 87.8 188.861 87.8 165.039C87.8 141.217 107.139 121.901 131 121.901C154.861 121.901 174.2 141.217 174.2 165.039Z" stroke="black" stroke-width="4"/>
<path d="M174.2 121.088C174.2 144.91 154.861 164.227 131 164.227C107.139 164.227 87.8 144.91 87.8 121.088C87.8 97.2665 107.139 77.9503 131 77.9503C154.861 77.9503 174.2 97.2665 174.2 121.088Z" stroke="black" stroke-width="4"/>
<path d="M218.211 123.464C218.211 147.286 198.872 166.602 175.011 166.602C151.149 166.602 131.811 147.286 131.811 123.464C131.811 99.6422 151.149 80.326 175.011 80.326C198.872 80.326 218.211 99.6422 218.211 123.464Z" stroke="black" stroke-width="4"/>
<path d="M131.379 123.464C131.379 147.286 112.04 166.602 88.179 166.602C64.3177 166.602 44.979 147.286 44.979 123.464C44.979 99.6422 64.3177 80.326 88.179 80.326C112.04 80.326 131.379 99.6422 131.379 123.464Z" stroke="black" stroke-width="4"/>
<path d="M174.2 77.1382C174.2 100.96 154.861 120.276 131 120.276C107.139 120.276 87.8 100.96 87.8 77.1382C87.8 53.3162 107.139 34 131 34C154.861 34 174.2 53.3162 174.2 77.1382Z" stroke="black" stroke-width="4"/>
<line y1="-2" x2="226.003" y2="-2" transform="matrix(0.999986 0.0053402 -0.00535485 0.999986 18 121.089)" stroke="black" stroke-width="4"/>
<line y1="-2" x2="127.105" y2="-2" transform="matrix(-0.00953642 0.999955 -0.999955 -0.00951036 129.811 119.901)" stroke="black" stroke-width="4"/>
</svg>
